<svg xmlns="http://www.w3.org/2000/svg" width="1180" height="900" viewBox="0 0 1180 900" font-family="Arial,Helvetica,sans-serif">
<rect width="1180" height="900" fill="#fdfdfd"/>
<defs><marker id="dot" markerWidth="4" markerHeight="4" refX="2" refY="2"><circle cx="2" cy="2" r="1.5" fill="#888"/></marker></defs>
<text x="590.0" y="34" text-anchor="middle" font-size="21" font-weight="bold">FTTH Backbone Topology — Melamchi / Helambu / Thangpal / Haibung</text>
<text x="590.0" y="56" text-anchor="middle" font-size="12" fill="#666">Road distances from OSRM · 48F rings, 24F spur · 2026-10-02</text>
<line x1="759" y1="508" x2="598" y2="436" stroke="#e53935" stroke-width="5" stroke-opacity="0.75"/>
<rect x="633" y="461" width="92" height="15" rx="3" fill="#fff" stroke="#e53935" stroke-width="0.8"/>
<text x="679" y="472" text-anchor="middle" font-size="10.5" fill="#e53935" font-weight="bold">5.85 km · 48F</text>
<line x1="598" y1="436" x2="1090" y2="319" stroke="#e53935" stroke-width="5" stroke-opacity="0.75"/>
<rect x="798" y="367" width="92" height="15" rx="3" fill="#fff" stroke="#e53935" stroke-width="0.8"/>
<text x="844" y="378" text-anchor="middle" font-size="10.5" fill="#e53935" font-weight="bold">19.84 km · 48F</text>
<line x1="1090" y1="319" x2="759" y2="508" stroke="#e53935" stroke-width="5" stroke-opacity="0.75"/>
<rect x="879" y="403" width="92" height="15" rx="3" fill="#fff" stroke="#e53935" stroke-width="0.8"/>
<text x="925" y="414" text-anchor="middle" font-size="10.5" fill="#e53935" font-weight="bold">14.55 km · 48F</text>
<line x1="759" y1="508" x2="907" y2="810" stroke="#1e88e5" stroke-width="5" stroke-opacity="0.75"/>
<rect x="787" y="648" width="92" height="15" rx="3" fill="#fff" stroke="#1e88e5" stroke-width="0.8"/>
<text x="833" y="659" text-anchor="middle" font-size="10.5" fill="#1e88e5" font-weight="bold">12.51 km · 48F</text>
<line x1="907" y1="810" x2="496" y2="712" stroke="#1e88e5" stroke-width="5" stroke-opacity="0.75"/>
<rect x="656" y="750" width="92" height="15" rx="3" fill="#fff" stroke="#1e88e5" stroke-width="0.8"/>
<text x="702" y="761" text-anchor="middle" font-size="10.5" fill="#1e88e5" font-weight="bold">13.19 km · 48F</text>
<line x1="496" y1="712" x2="759" y2="508" stroke="#1e88e5" stroke-width="5" stroke-opacity="0.75"/>
<rect x="582" y="599" width="92" height="15" rx="3" fill="#fff" stroke="#1e88e5" stroke-width="0.8"/>
<text x="628" y="610" text-anchor="middle" font-size="10.5" fill="#1e88e5" font-weight="bold">19.9 km · 48F</text>
<line x1="759" y1="508" x2="291" y2="514" stroke="#43a047" stroke-width="5" stroke-opacity="0.75"/>
<rect x="479" y="500" width="92" height="15" rx="3" fill="#fff" stroke="#43a047" stroke-width="0.8"/>
<text x="525" y="511" text-anchor="middle" font-size="10.5" fill="#43a047" font-weight="bold">17.84 km · 48F</text>
<line x1="291" y1="514" x2="90" y2="510" stroke="#43a047" stroke-width="5" stroke-opacity="0.75"/>
<rect x="145" y="501" width="92" height="15" rx="3" fill="#fff" stroke="#43a047" stroke-width="0.8"/>
<text x="191" y="512" text-anchor="middle" font-size="10.5" fill="#43a047" font-weight="bold">11.01 km · 48F</text>
<line x1="90" y1="510" x2="598" y2="436" stroke="#43a047" stroke-width="5" stroke-opacity="0.75"/>
<rect x="298" y="462" width="92" height="15" rx="3" fill="#fff" stroke="#43a047" stroke-width="0.8"/>
<text x="344" y="473" text-anchor="middle" font-size="10.5" fill="#43a047" font-weight="bold">22.21 km · 48F</text>
<line x1="759" y1="508" x2="616" y2="90" stroke="#fb8c00" stroke-width="5" stroke-opacity="0.75"/>
<rect x="642" y="288" width="92" height="15" rx="3" fill="#fff" stroke="#fb8c00" stroke-width="0.8"/>
<text x="688" y="299" text-anchor="middle" font-size="10.5" fill="#fb8c00" font-weight="bold">34.32 km · 24F</text>
<line x1="759" y1="508" x2="616" y2="90" stroke="#8e24aa" stroke-width="2" stroke-dasharray="4 6"/>
<circle cx="759" cy="508" r="15" fill="#c62828" stroke="#fff" stroke-width="3"/>
<text x="759" y="486" text-anchor="middle" font-size="14" font-weight="bold">HE</text>
<text x="759" y="538" text-anchor="middle" font-size="11" fill="#333">PON 31/32 · DB 17 · ~2279 HH</text>
<circle cx="1090" cy="319" r="12" fill="#1565c0" stroke="#fff" stroke-width="3"/>
<text x="1090" y="297" text-anchor="middle" font-size="14" font-weight="bold">POP1</text>
<text x="1090" y="349" text-anchor="middle" font-size="11" fill="#333">PON 25/16 · DB 14 · ~1729 HH</text>
<circle cx="598" cy="436" r="12" fill="#1565c0" stroke="#fff" stroke-width="3"/>
<text x="598" y="414" text-anchor="middle" font-size="14" font-weight="bold">POP2</text>
<text x="598" y="466" text-anchor="middle" font-size="11" fill="#333">PON 28/16 · DB 17 · ~1741 HH</text>
<circle cx="291" cy="514" r="12" fill="#1565c0" stroke="#fff" stroke-width="3"/>
<text x="291" y="492" text-anchor="middle" font-size="14" font-weight="bold">POP3</text>
<text x="291" y="544" text-anchor="middle" font-size="11" fill="#333">PON 0/16 · DB 0 · ~0 HH</text>
<circle cx="496" cy="712" r="12" fill="#1565c0" stroke="#fff" stroke-width="3"/>
<text x="496" y="690" text-anchor="middle" font-size="14" font-weight="bold">POP4</text>
<text x="496" y="742" text-anchor="middle" font-size="11" fill="#333">PON 14/16 · DB 11 · ~858 HH</text>
<circle cx="907" cy="810" r="12" fill="#1565c0" stroke="#fff" stroke-width="3"/>
<text x="907" y="788" text-anchor="middle" font-size="14" font-weight="bold">POP5</text>
<text x="907" y="840" text-anchor="middle" font-size="11" fill="#333">PON 4/16 · DB 2 · ~295 HH</text>
<circle cx="90" cy="510" r="12" fill="#1565c0" stroke="#fff" stroke-width="3"/>
<text x="90" y="488" text-anchor="middle" font-size="14" font-weight="bold">POP6</text>
<text x="90" y="540" text-anchor="middle" font-size="11" fill="#333">PON 8/16 · DB 5 · ~432 HH</text>
<circle cx="616" cy="90" r="12" fill="#1565c0" stroke="#fff" stroke-width="3"/>
<text x="616" y="68" text-anchor="middle" font-size="14" font-weight="bold">POP7</text>
<text x="616" y="120" text-anchor="middle" font-size="11" fill="#333">PON 14/16 · DB 11 · ~727 HH</text>
<line x1="60" y1="730" x2="94" y2="730" stroke="#e53935" stroke-width="4"/>
<text x="102" y="734" font-size="12" fill="#222">Ring A: HE-POP2-POP1-HE (40.2 km)</text>
<line x1="60" y1="750" x2="94" y2="750" stroke="#1e88e5" stroke-width="4"/>
<text x="102" y="754" font-size="12" fill="#222">Ring B: HE-POP5-POP4-HE (45.6 km)</text>
<line x1="60" y1="770" x2="94" y2="770" stroke="#43a047" stroke-width="4"/>
<text x="102" y="774" font-size="12" fill="#222">Ring C: HE-POP2-POP6-POP3-HE (56.9 km)</text>
<line x1="60" y1="790" x2="94" y2="790" stroke="#fb8c00" stroke-width="4"/>
<text x="102" y="794" font-size="12" fill="#222">Spur: HE-POP7 24F + wireless PTP backup</text>
<line x1="60" y1="810" x2="94" y2="810" stroke="#8e24aa" stroke-width="4"/>
<text x="102" y="814" font-size="12" fill="#222">Wireless backup ~14 km (LOS survey)</text>
<text x="1120" y="860" text-anchor="end" font-size="11" fill="#777">Total backbone: 171.2 road-km · Distribution (to 77 DB sites): ~156 km est</text>
</svg>